HIERARCHY
ROOT Hips
{
	OFFSET	0.00	0.00	0.00
	CHANNELS 6 Xposition Yposition Zposition Zrotation Xrotation Yrotation
	JOINT LeftUpLeg
	{
		OFFSET	 0.126116	-0.065224	 0.014019
		CHANNELS 3 Zrotation Xrotation Yrotation
		JOINT LeftLeg
		{
			OFFSET	 0.000000	 0.569914	 0.000000
			CHANNELS 3 Zrotation Xrotation Yrotation
			JOINT LeftFoot
			{
				OFFSET	 0.000000	 0.544423	 0.000000
				CHANNELS 3 Zrotation Xrotation Yrotation
				JOINT LeftToeBase
				{
					OFFSET	 0.000000	 0.207117	 0.000000
					CHANNELS 3 Zrotation Xrotation Yrotation
					End Site
					{
						OFFSET	 0.000000	 0.207117	 0.000000
					}
				}
			}
		}
	}
	JOINT RightUpLeg
	{
		OFFSET	-0.124023	-0.065224	 0.008373
		CHANNELS 3 Zrotation Xrotation Yrotation
		JOINT RightLeg
		{
			OFFSET	 0.000000	 0.570047	 0.000000
			CHANNELS 3 Zrotation Xrotation Yrotation
			JOINT RightFoot
			{
				OFFSET	 0.000000	 0.544354	 0.000000
				CHANNELS 3 Zrotation Xrotation Yrotation
				JOINT RightToeBase
				{
					OFFSET	 0.000000	 0.207540	 0.000000
					CHANNELS 3 Zrotation Xrotation Yrotation
					End Site
					{
						OFFSET	 0.000000	 0.207540	 0.000000
					}
				}
			}
		}
	}
	JOINT Spine
	{
		OFFSET	 0.000184	 0.117403	 0.007763
		CHANNELS 3 Zrotation Xrotation Yrotation
		JOINT Spine1
		{
			OFFSET	 0.000000	 0.137269	 0.000000
			CHANNELS 3 Zrotation Xrotation Yrotation
			JOINT Spine2
			{
				OFFSET	 0.000000	 0.156879	 0.000000
				CHANNELS 3 Zrotation Xrotation Yrotation
				JOINT LeftShoulder
				{
					OFFSET	 0.080501	 0.160143	 0.002496
					CHANNELS 3 Zrotation Xrotation Yrotation
					JOINT LeftArm
					{
						OFFSET	 0.000000	 0.164363	 0.000000
						CHANNELS 3 Zrotation Xrotation Yrotation
						JOINT LeftForeArm
						{
							OFFSET	 0.000000	 0.364576	 0.000000
							CHANNELS 3 Zrotation Xrotation Yrotation
							JOINT LeftHand
							{
								OFFSET	 0.000000	 0.360812	 0.000000
								CHANNELS 3 Zrotation Xrotation Yrotation
								JOINT LeftHandIndex1
								{
									OFFSET	 0.000000	 0.086006	 0.000000
									CHANNELS 3 Zrotation Xrotation Yrotation
									JOINT LeftHandIndex2
									{
										OFFSET	 0.000000	 0.047237	 0.000000
										CHANNELS 3 Zrotation Xrotation Yrotation
										JOINT LeftHandIndex3
										{
											OFFSET	-0.004284	 0.038165	 0.000551
											CHANNELS 3 Zrotation Xrotation Yrotation
											End Site
											{
												OFFSET	-0.004284	 0.038165	 0.000551
											}
										}
									}
								}
							}
						}
					}
				}
				JOINT Neck
				{
					OFFSET	 0.000000	 0.176489	 0.000000
					CHANNELS 3 Zrotation Xrotation Yrotation
					JOINT Head
					{
						OFFSET	 0.000000	 0.077941	 0.001747
						CHANNELS 3 Zrotation Xrotation Yrotation
						End Site
						{
							OFFSET	 0.000000	 0.077941	 0.001747
						}
					}
				}
				JOINT RightShoulder
				{
					OFFSET	-0.080363	 0.159706	-0.000306
					CHANNELS 3 Zrotation Xrotation Yrotation
					JOINT RightArm
					{
						OFFSET	 0.000000	 0.164196	 0.000000
						CHANNELS 3 Zrotation Xrotation Yrotation
						JOINT RightForeArm
						{
							OFFSET	 0.000000	 0.365611	 0.000000
							CHANNELS 3 Zrotation Xrotation Yrotation
							JOINT RightHand
							{
								OFFSET	 0.000000	 0.360648	 0.000000
								CHANNELS 3 Zrotation Xrotation Yrotation
								JOINT RightHandIndex1
								{
									OFFSET	 0.000000	 0.069977	 0.000000
									CHANNELS 3 Zrotation Xrotation Yrotation
									JOINT RightHandIndex2
									{
										OFFSET	 0.000000	 0.052305	 0.000000
										CHANNELS 3 Zrotation Xrotation Yrotation
										JOINT RightHandIndex3
										{
											OFFSET	 0.009002	 0.042196	 0.000782
											CHANNELS 3 Zrotation Xrotation Yrotation
											End Site
											{
												OFFSET	 0.009002	 0.042196	 0.000782
											}
										}
									}
								}
							}
						}
					}
				}
			}
		}
	}
}
MOTION
Frames:    13
Frame Time: 0.03333334
-0.018195	 1.254917	 0.114344	 4.798554	 0.155573	 174.255400	-170.276300	 16.393660	 6.725265	 2.483922	-25.176260	 1.259544	 46.045430	 46.610980	-62.989040	 4.912833	 28.009710	-6.307213	-173.073000	 5.285784	-0.370691	-1.776614	-19.785130	 1.554139	-57.528070	 58.338220	 64.427990	-0.402447	 31.203370	 1.658778	 1.540205	 3.746372	-17.494980	 9.326283	 9.550362	-8.083913	-7.873739	-7.690655	 25.268040	-112.419300	 2.947948	 88.289570	-7.412042	 49.252100	 31.785780	 26.210280	-1.258555	-1.006566	-38.845760	-1.600401	-94.434380	-7.848543	 12.647580	-5.875140	-7.229506	 12.632000	 2.799642	 4.963066	-4.014628	-0.346955	 1.369708	-13.689320	 1.429194	-2.442349	 8.235821	-15.930410	 108.945800	 0.812134	-88.664740	-11.464270	 63.867790	 11.724020	-5.996572	-1.259443	 42.796990	-29.555500	 21.597520	-94.628140	 1.869812	 7.915432	 8.956767	 15.203480	 20.334220	-6.367522	-8.239867	-2.131385	 0.447455
-0.019631	 1.253964	 0.112845	 4.856421	-0.084470	 174.692000	-170.394600	 17.093660	 6.905025	 2.577430	-26.000530	 1.472497	 46.433880	 46.712530	-63.439180	 4.912846	 28.009780	-6.307150	-173.122700	 5.841289	 0.287081	-1.846851	-20.503060	 1.122306	-58.285710	 58.217840	 65.443100	-0.440073	 31.249260	 1.696094	 1.789943	 3.500669	-21.382590	 10.052060	 9.845835	-8.299808	-8.672781	-8.332691	 25.209340	-112.205900	 2.680324	 88.253920	-8.333001	 48.838970	 31.755730	 28.749390	-1.273013	-3.562921	-42.766720	-2.156092	-93.516510	-7.601989	 12.849050	-5.937111	-7.230629	 12.585190	 2.793252	 4.963066	-4.014628	-0.346955	 1.148812	-13.354770	 1.543210	-2.365252	 8.756950	-17.165510	 108.679200	 1.016621	-88.767210	-10.413390	 64.400920	 11.561210	-7.277228	-2.328832	 44.711380	-35.563500	 22.170530	-92.575070	 1.658240	 7.344065	 8.949288	 15.204420	 20.460950	-6.402232	-8.239867	-2.131385	 0.447455
-0.021209	 1.252578	 0.110837	 4.872230	-0.328136	 175.144500	-170.590300	 17.832120	 7.141632	 2.684700	-26.931790	 1.690570	 46.904070	 46.866220	-63.997760	 4.912859	 28.009860	-6.307085	-173.226600	 6.488880	 0.938925	-1.940256	-21.447320	 0.703393	-59.209110	 58.186380	 66.670620	-0.478964	 31.296620	 1.734664	 2.003066	 3.263542	-25.291820	 10.552780	 10.047300	-8.435350	-9.251633	-8.810565	 25.177230	-111.985800	 2.403957	 88.218190	-9.093287	 48.530570	 31.592920	 31.063530	-1.272781	-6.185549	-46.692560	-3.084772	-92.594670	-7.347060	 13.056710	-6.002062	-7.231795	 12.536880	 2.786656	 4.963066	-4.014628	-0.346955	 0.920403	-13.009900	 1.662122	-2.269163	 9.425772	-18.574560	 108.404300	 1.228184	-88.871940	-9.087896	 64.841170	 11.173880	-8.616938	-3.392061	 46.644500	-41.412100	 22.675830	-90.366210	 1.440033	 6.754287	 8.939346	 15.205470	 20.591750	-6.438092	-8.239867	-2.131385	 0.447455
-0.023253	 1.250534	 0.107931	 4.850859	-0.624606	 175.705300	-170.903700	 18.743480	 7.483065	 2.825636	-28.132350	 1.956095	 47.544760	 47.092810	-64.767120	 4.912877	 28.009960	-6.307004	-173.415200	 7.325071	 1.724508	-2.070163	-22.740600	 0.220801	-60.441630	 58.217310	 68.298930	-0.527134	 31.355130	 1.782438	 2.209019	 2.992557	-29.920240	 10.945900	 10.209550	-8.509787	-9.742878	-9.232406	 25.149120	-111.713900	 2.062026	 88.175490	-9.831225	 48.263330	 31.249810	 33.606690	-1.258101	-9.386016	-51.170060	-4.702294	-91.532180	-7.031178	 13.313120	-6.083769	-7.233244	 12.477140	 2.778501	 4.963066	-4.014628	-0.346955	 0.637357	-12.584050	 1.810898	-2.125191	 10.398510	-20.464570	 108.064900	 1.490517	-89.000110	-7.216202	 65.284240	 10.479020	-10.286720	-4.641469	 48.958340	-48.108880	 23.114310	-87.602550	 1.170374	 6.024951	 8.923944	 15.206900	 20.753500	-6.482482	-8.239867	-2.131385	 0.447455
-0.025242	 1.248452	 0.104944	 4.799228	-0.905875	 176.245900	-171.257400	 19.594020	 7.848809	 2.961959	-29.268300	 2.204922	 48.183660	 47.316800	-65.534560	 4.912893	 28.010050	-6.306927	-173.647900	 8.113606	 2.468485	-2.197449	-23.984400	-0.208983	-61.631800	 58.269890	 69.860440	-0.573646	 31.411510	 1.828568	 2.354003	 2.758846	-34.112780	 11.157370	 10.300850	-8.510635	-10.046890	-9.509194	 25.121460	-111.452200	 1.732230	 88.135860	-10.350920	 48.114340	 30.787970	 35.789270	-1.233631	-12.404390	-54.942560	-6.685060	-90.630000	-6.726032	 13.559850	-6.163982	-7.234647	 12.419550	 2.770641	 4.963066	-4.014628	-0.346955	 0.363903	-12.174270	 1.956105	-1.953867	 11.470600	-22.426030	 107.738300	 1.744078	-89.122200	-5.305953	 65.639540	 9.708839	-11.899120	-5.769330	 51.090630	-53.850350	 23.328170	-85.066480	 0.910589	 5.322028	 8.905854	 15.208400	 20.909390	-6.525315	-8.239867	-2.131385	 0.447455
-0.027540	 1.246127	 0.101472	 4.708447	-1.241505	 176.898400	-171.723800	 20.554840	 8.323141	 3.115604	-30.518970	 2.491150	 48.926280	 47.555410	-66.418460	 4.912914	 28.010160	-6.306835	-173.976200	 8.987712	 3.354372	-2.338121	-25.331390	-0.682257	-62.956720	 58.308730	 71.583680	-0.629892	 31.479510	 1.884353	 2.470288	 2.515952	-38.761110	 11.258170	 10.345440	-8.458515	-10.251320	-9.717424	 25.087610	-111.136700	 1.333975	 88.090050	-10.755100	 48.081050	 30.089470	 38.165500	-1.196899	-15.927750	-58.658990	-9.477541	-89.727020	-6.356845	 13.857070	-6.262706	-7.236352	 12.350050	 2.761154	 4.963066	-4.014628	-0.346955	 0.033007	-11.680620	 2.133722	-1.691325	 12.930550	-24.977920	 107.344800	 2.051002	-89.267620	-3.085252	 66.013790	 8.858487	-13.828540	-7.019437	 53.511130	-59.589400	 23.392360	-82.426100	 0.597129	 4.473814	 8.879790	 15.210380	 21.097550	-6.577080	-8.239867	-2.131385	 0.447455
-0.029436	 1.244468	 0.098747	 4.599460	-1.551724	 177.507900	-172.178800	 21.361320	 8.786721	 3.236564	-31.481330	 2.738976	 49.534240	 47.711830	-67.126850	 4.912932	 28.010270	-6.306747	-174.313700	 9.691088	 4.172053	-2.443767	-26.323550	-1.079262	-63.987110	 58.280850	 72.906070	-0.682584	 31.543040	 1.936615	 2.532007	 2.336358	-42.583800	 11.232090	 10.301200	-8.355778	-10.306670	-9.780705	 24.969370	-110.842000	 0.961450	 88.049220	-10.940970	 48.227870	 29.337510	 40.219700	-1.160908	-19.070860	-61.182680	-12.479690	-88.899730	-6.010793	 14.134370	-6.356900	-7.237957	 12.285070	 2.752285	 4.963066	-4.014628	-0.346955	-0.277214	-11.220050	 2.302110	-1.378121	 14.441310	-27.498200	 106.977600	 2.338848	-89.401700	-1.323991	 66.332970	 8.363841	-15.599890	-8.069711	 55.600460	-63.510230	 23.190930	-80.516530	 0.304073	 3.681087	 8.851247	 15.212400	 21.273460	-6.625541	-8.239867	-2.131385	 0.447455
-0.035229	 1.242171	 0.091710	 4.059731	-2.437225	 179.228500	-173.770600	 23.198180	 10.146290	 3.482847	-33.380680	 3.093386	 49.666680	 48.223980	-68.049060	 4.998106	 29.043790	-6.001180	-175.475700	 11.075200	 5.973489	-2.610875	-27.858750	-1.504175	-65.578090	 58.451970	 75.006690	-0.764049	 31.563380	 2.020105	 2.454181	 2.456342	-44.405360	 10.517450	 9.285917	-6.842859	-10.165240	-8.617589	 22.298160	-110.705300	-0.456915	 87.648480	-10.485170	 48.420650	 27.816240	 42.943650	-1.126843	-22.495340	-60.750990	-21.900260	-83.916390	-5.557117	 14.653070	-6.476148	-7.248158	 12.269270	 2.754877	 4.963066	-4.014628	-0.346955	-0.458386	-10.614740	 2.271152	-0.631426	 15.468640	-29.703360	 106.138500	 3.725996	-89.829070	 6.718112	 67.164410	 3.841866	-20.365940	-9.352747	 57.569730	-66.838500	 17.137740	-78.590730	 1.660006	-1.175739	 8.693141	 14.933090	 20.389050	-6.290110	-8.239867	-2.131385	 0.447455
-0.044294	 1.241748	 0.082031	 3.204622	-3.829811	-178.195800	-176.369200	 25.421920	 12.339610	 3.738930	-35.270870	 3.438449	 49.186600	 48.885280	-68.834900	 5.145981	 31.027100	-5.411144	-177.344400	 12.464810	 8.529736	-2.709523	-28.745110	-1.824196	-66.787940	 58.619840	 76.723220	-0.858928	 31.528590	 2.119366	 2.196277	 2.813233	-44.672330	 9.256627	 8.253678	-4.846790	-10.030020	-7.228515	 19.422100	-110.806900	-2.744082	 86.922270	-8.954859	 48.484700	 25.363790	 45.853650	-1.096988	-25.371740	-57.159800	-32.174420	-76.992860	-5.087396	 15.325710	-6.598392	-7.265859	 12.314390	 2.770151	 4.963066	-4.014628	-0.346955	-0.442798	-9.987705	 2.014524	 0.501751	 15.976820	-32.255300	 104.972200	 6.062192	-90.460000	 31.537120	 68.134710	-15.047810	-34.995530	-11.154260	 58.527930	-65.232280	 9.648573	-81.043530	 4.620753	-9.616250	 8.756673	 14.418220	 18.483990	-5.610911	-8.239867	-2.131385	 0.447455
-0.051929	 1.239046	 0.071213	 2.339197	-5.619808	-174.895000	-179.683100	 28.479830	 15.617530	 4.245265	-38.760830	 4.091657	 48.845640	 50.192680	-70.689370	 5.156351	 33.322190	-4.950447	-179.548100	 14.352700	 12.024270	-2.893771	-30.360710	-2.317388	-69.063190	 58.864510	 79.584420	-0.952168	 31.204040	 2.229006	 2.004153	 3.325598	-44.036620	 7.269303	 7.061379	-2.720675	-9.461543	-5.314066	 15.775620	-110.740300	-4.842427	 86.328770	-6.558110	 48.851410	 21.899810	 48.457310	-1.034718	-28.380610	-47.410060	-42.567870	-65.086330	-4.552886	 15.870200	-6.766734	-7.285858	 12.362670	 2.787118	 4.963066	-4.014628	-0.346955	-0.170841	-9.450594	 1.629303	 1.962771	 16.406170	-35.542460	 103.612200	 8.586008	-90.901360	 43.438670	 68.975040	-21.822120	-41.496070	-12.155400	 59.744420	-64.122840	 1.382040	-82.587280	 7.997311	-19.010710	 9.359895	 13.948650	 16.732930	-5.004313	-8.239867	-2.131385	 0.447455
-0.054827	 1.228467	 0.054315	 1.787150	-7.830503	-169.816400	 175.637000	 33.139030	 21.465970	 5.648229	-46.869420	 5.936504	 47.716570	 53.047610	-74.077890	 4.476796	 35.623020	-5.655153	 177.815700	 16.637630	 18.047370	-3.275033	-33.539470	-3.352672	-74.494200	 59.057200	 85.621410	-0.959793	 29.425420	 2.311778	 2.203691	 4.394937	-41.314490	 4.246319	 6.071136	 0.144535	-8.514992	-2.103693	 11.326890	-109.566300	-4.145546	 87.021740	-2.748111	 49.773020	 16.221160	 50.303670	-0.961850	-31.081880	-27.476960	-50.212510	-44.252260	-4.083484	 15.224790	-7.033635	-7.303348	 12.391050	 2.800413	 4.963066	-4.014628	-0.346955	 1.381539	-9.888429	 0.796136	 4.047485	 16.005350	-40.235540	 102.060300	 10.119030	-90.103130	 33.835320	 70.732770	-10.490360	-39.924030	-12.420610	 61.188300	-60.182960	-11.247060	-78.530700	 10.655630	-26.759250	 10.264320	 13.955060	 17.326380	-5.167418	-8.239867	-2.131385	 0.447455
-0.052297	 1.170740	 0.038465	 1.062955	-10.111950	-165.311700	 169.616800	 40.599610	 26.771710	 9.970407	-61.964080	 10.811790	 52.552720	 55.485980	-79.235270	 3.801805	 39.816280	-4.958418	 170.974000	 28.065050	 24.739300	-7.417211	-56.272610	-7.279072	-81.411910	 58.361250	 94.846570	-1.508136	 35.970870	 3.126273	 3.126480	 5.894731	-38.250840	 1.965881	 7.394594	 2.089111	-7.967162	 1.809255	 7.431314	-107.555500	-1.149210	 88.600510	 6.917171	 50.845280	 5.123826	 49.751320	-0.854608	-33.511490	-1.085280	-48.995680	-17.429420	-3.825533	 13.093510	-7.344053	-7.220804	 11.713470	 2.670652	 4.963066	-4.014628	-0.346955	 3.080288	-10.565950	 0.167509	 5.341375	 13.368860	-42.995420	 100.161400	 11.212400	-87.949120	 9.635879	 70.937130	 14.749050	-47.613410	-13.112330	 61.640420	-46.036400	-24.795340	-72.390630	 8.985840	-28.422900	 8.780327	 14.006060	 17.670960	-5.257813	-8.239867	-2.131385	 0.447455
-0.045078	 1.088242	 0.034119	 0.734638	-13.780290	-161.656100	 163.612800	 50.471320	 31.058140	 21.816000	-76.066460	 22.335380	 51.944750	 59.259240	-79.588390	 3.603105	 46.198950	-4.238969	 161.849900	 43.490740	 26.747380	-28.454750	-79.747100	-28.107300	-77.092610	 59.434810	 95.249050	-2.130295	 39.565930	 5.078443	 4.374461	 7.573256	-34.999340	 1.790812	 10.426370	 2.921856	-8.124365	 5.853265	 4.115760	-104.830200	 1.539328	 89.898520	 19.477350	 50.550430	-7.386180	 48.919720	-0.842347	-35.482780	 17.153540	-38.720830	 1.172102	-3.801011	 10.781030	-7.588989	-7.080091	 10.594130	 2.454252	 4.963066	-4.014628	-0.346955	 4.067192	-11.541390	-0.130559	 6.769021	 9.502028	-44.533940	 97.448970	 12.996480	-85.551730	-14.893680	 66.167820	 42.392740	-56.506300	-13.706600	 61.715660	-31.822840	-34.301920	-65.330520	 6.536122	-27.551590	 6.684626	 14.064480	 17.953900	-5.331409	-8.239867	-2.131385	 0.447455
